<?xml version="1.0" encoding="UTF-8"?>
<svg width="20px" height="20px" viewBox="0 0 20 20" version="1.1" xmlns="http://www.w3.org/2000/svg" xmlns:xlink="http://www.w3.org/1999/xlink">
    <!-- Generator: Sketch 50.2 (55047) - http://www.bohemiancoding.com/sketch -->
    <title>工单@2x</title>
    <desc>Created with Sketch.</desc>
    <defs></defs>
    <g id="工单" stroke="none" stroke-width="1" fill="none" fill-rule="evenodd">
        <g id="Group-4" transform="translate(1.000000, 0.000000)" fill="#A8ADAF">
            <path d="M3,1 L3,5 L15,5 L15,1 L17,1 C17.5522847,1 18,1.44771525 18,2 L18,19 C18,19.5522847 17.5522847,20 17,20 L1,20 C0.44771525,20 6.76353751e-17,19.5522847 0,19 L0,2 C-6.76353751e-17,1.44771525 0.44771525,1 1,1 L3,1 Z M4,8 C3.44771525,8 3,8.44771525 3,9 C3,9.55228475 3.44771525,10 4,10 L14,10 C14.5522847,10 15,9.55228475 15,9 C15,8.44771525 14.5522847,8 14,8 L4,8 Z M4,13 C3.44771525,13 3,13.4477153 3,14 C3,14.5522847 3.44771525,15 4,15 L10,15 C10.5522847,15 11,14.5522847 11,14 C11,13.4477153 10.5522847,13 10,13 L4,13 Z M5,0 L13,0 L13,3 L5,3 L5,0 Z" id="Combined-Shape"></path>
        </g>
    </g>
</svg>